<?xml version="1.0" encoding="utf-8"?>
<!-- Generator: Adobe Illustrator 23.0.2, SVG Export Plug-In . SVG Version: 6.00 Build 0)  -->
<svg version="1.1" id="Layer_1" xmlns="http://www.w3.org/2000/svg" xmlns:xlink="http://www.w3.org/1999/xlink" x="0px" y="0px"
	 viewBox="0 0 1798 900" style="enable-background:new 0 0 1798 900;" xml:space="preserve">
<style type="text/css">
	.st0{fill:#F15A22;}
</style>
<g>
	<g id="BLue__x26__Black_2_1_">
		<g id="XMLID_4_">
			<g id="XMLID_16_">
				<path d="M747.21,317.2c13.3,4.91,17.81,12.75,15.46,28.06c-4.97,32.41-10.19,64.78-15.27,97.17
					c-5.35,34.08-10.6,68.18-16.02,102.25c-1.26,7.92-2.54,15.89-4.69,23.59c-4.25,15.18-13.9,22.98-29.49,23.87
					c-24.03,1.38-48.1,1.82-72.06-0.84c-25.53-2.83-46.78-13.47-60.5-36.5c-8.42-14.14-11.12-29.64-10.63-45.92
					c0.91-29.99,12.99-54.97,33.45-76.16c19.9-20.61,43.4-34.86,71.58-40.63c14.95-3.06,30.07-3.25,45.72-2.08
					c1.08-6.72,2.14-13.29,3.2-19.86c1.28-7.92,2.46-15.87,3.87-23.77c2.65-14.73,9.57-25.8,25.17-29.19
					C740.4,317.2,743.81,317.2,747.21,317.2z M698.05,436.12c-14.21-1.23-27.53-0.31-40.05,4.84
					c-28.41,11.68-48.78,30.51-51.73,63.38c-1.74,19.36,7.29,33.95,26.19,38.29c15.29,3.51,30.95,2.37,46.48,2.33
					c0.77,0,2.04-1.49,2.22-2.46c0.98-5.17,1.67-10.39,2.49-15.59c3.49-22.1,6.98-44.21,10.48-66.31
					C695.4,452.58,696.7,444.56,698.05,436.12z"/>
				<path d="M663.17,594.38c-12.18,0-25.15-0.5-38.15-1.94c-28.3-3.14-48.37-15.25-61.35-37.05c-7.81-13.11-11.34-28.33-10.79-46.54
					c0.87-28.73,12.23-54.61,33.77-76.92c20.9-21.65,45.18-35.43,72.17-40.95c13.25-2.71,27.57-3.4,44.99-2.17l3.04-18.83
					c0.39-2.42,0.77-4.85,1.15-7.27c0.85-5.42,1.74-11.02,2.72-16.52c3.08-17.12,11.59-26.96,26.05-30.1l0.24-0.03l10.6,0.07
					c13.91,5.13,18.6,13.62,16.19,29.3c-3.2,20.85-6.55,42.04-9.8,62.52c-1.83,11.55-3.66,23.1-5.47,34.65
					c-1.9,12.14-3.8,24.28-5.69,36.42c-3.42,21.95-6.84,43.9-10.33,65.84c-1.24,7.81-2.53,15.89-4.72,23.72
					c-4.4,15.7-14.38,23.78-30.52,24.71C687.25,593.86,675.62,594.38,663.17,594.38z M688.08,390.5c-10.53,0-19.93,0.9-28.82,2.72
					c-26.53,5.43-50.41,18.99-70.99,40.3c-21.43,22.19-32.26,46.86-33.13,75.41c-0.54,17.76,2.88,32.58,10.47,45.3
					c12.6,21.14,32.11,32.9,59.64,35.95c26.13,2.9,52.14,1.97,71.87,0.83c15.04-0.86,24.35-8.4,28.45-23.05
					c2.16-7.7,3.43-15.71,4.66-23.46c3.49-21.93,6.91-43.88,10.33-65.83c1.89-12.14,3.79-24.28,5.69-36.42
					c1.81-11.55,3.64-23.11,5.47-34.66c3.24-20.48,6.6-41.67,9.8-62.52c2.22-14.49-1.85-22.01-14.54-26.75h-9.88
					c-13.56,2.99-21.24,11.97-24.17,28.25c-0.98,5.47-1.86,11.06-2.71,16.47c-0.38,2.43-0.76,4.86-1.16,7.28l-3.37,20.9l-1.04-0.08
					C698.81,390.72,693.31,390.5,688.08,390.5z M660.35,546.31c-9.37,0-18.86-0.43-28.14-2.57c-18.78-4.31-28.9-19.08-27.08-39.51
					c2.68-29.88,19.83-50.93,52.43-64.33c11.55-4.75,24.45-6.31,40.59-4.92l1.22,0.1l-1.4,8.76c-0.92,5.74-1.82,11.34-2.71,16.94
					c-3.5,22.1-6.99,44.21-10.48,66.31c-0.25,1.61-0.49,3.22-0.74,4.83c-0.53,3.54-1.08,7.21-1.76,10.8
					c-0.25,1.33-1.85,3.38-3.34,3.38c-2.98,0.01-5.95,0.06-8.94,0.1C666.81,546.26,663.59,546.31,660.35,546.31z M687.37,436.77
					c-10.99,0-20.36,1.71-28.94,5.24c-31.74,13.05-48.43,33.47-51.03,62.43c-1.74,19.47,7.48,32.99,25.32,37.08
					c12.22,2.8,24.95,2.61,37.26,2.4c2.99-0.05,5.98-0.1,8.97-0.1c0.24-0.11,1.01-1.04,1.1-1.53c0.67-3.54,1.21-7.19,1.74-10.71
					c0.24-1.62,0.48-3.24,0.74-4.85c3.49-22.1,6.98-44.21,10.48-66.31c0.89-5.6,1.79-11.2,2.71-16.95l1.01-6.33
					C693.48,436.9,690.36,436.77,687.37,436.77z"/>
			</g>
			<g id="XMLID_13_">
				<path d="M413.23,503.83c-4.41,23.59,7.2,39.8,31.66,43.91c8.46,1.42,17.11,2.05,25.7,2.29c13.46,0.37,26.94,0.04,40.41,0.14
					c3.11,0.02,6.27,0.29,9.33,0.89c12.46,2.41,18.24,12.91,13.91,25c-3.93,10.96-12.41,17.39-23.97,17.73
					c-25.35,0.73-50.72,1.14-75.97-1.68c-14.56-1.63-28.87-4.47-41.58-12.62c-18.3-11.73-28.56-28.83-31.44-50.09
					c-4.61-34.07,1.7-65.91,21.9-94.14c16.4-22.93,37.35-39.83,65.22-46.15c24.19-5.48,48.14-4.76,70.46,7.42
					c21.28,11.61,32.17,30.41,34.54,54.53c1.13,11.52,0.81,22.93-2.38,34.1c-3.48,12.2-10.38,17.58-22.99,18.26
					c-4.7,0.25-9.4,0.4-14.1,0.4c-32.04,0.03-64.08,0.02-96.12,0.02C416.25,503.83,414.7,503.83,413.23,503.83z M419.84,468.03
					c0.54,0.22,0.78,0.39,1.01,0.39c26.26,0.03,52.51,0.07,78.77-0.04c0.92,0,2.41-1.36,2.67-2.34c5.74-21.5-8.87-40.74-30.91-41.1
					c-18.59-0.3-32.54,7.96-42.87,23.1C424.37,454.14,421.54,460.86,419.84,468.03z"/>
				<path d="M479.81,595.47c-15.11,0-30.48-0.53-45.65-2.22c-13.24-1.48-28.59-4.16-42.06-12.8c-18.21-11.67-28.96-28.8-31.95-50.9
					c-4.84-35.74,2.6-67.69,22.1-94.96c18.19-25.43,39.74-40.67,65.9-46.6c27.32-6.19,50.63-3.73,71.26,7.54
					c20.81,11.36,32.63,30,35.13,55.41c1.28,13.04,0.49,24.33-2.42,34.52c-3.61,12.67-10.8,18.37-24.03,19.09
					c-4.86,0.26-9.63,0.4-14.17,0.4c-24.3,0.03-48.6,0.02-72.92,0.02l-26.81,0c-1.82,10.71-0.19,20.07,4.74,27.13
					c5.24,7.51,14.28,12.53,26.15,14.52c7.51,1.26,15.87,2.01,25.54,2.27c8.38,0.23,16.92,0.19,25.17,0.15
					c5.07-0.02,10.14-0.05,15.21-0.01c3.34,0.02,6.55,0.33,9.53,0.91c6.28,1.21,11.22,4.5,13.93,9.27
					c2.77,4.87,3.07,10.99,0.83,17.24c-4.15,11.57-13.03,18.13-25.01,18.48C500.34,595.22,490.13,595.47,479.81,595.47z
					 M475.87,386.96c-8.61,0-17.67,1.09-27.23,3.25c-25.58,5.8-46.7,20.75-64.55,45.7c-19.16,26.78-26.46,58.18-21.7,93.33
					c2.9,21.41,13.3,37.99,30.92,49.29c13.08,8.38,28.11,11,41.09,12.45c25.39,2.84,51.38,2.38,75.81,1.68
					c10.98-0.32,19.12-6.35,22.93-16.97c2.01-5.61,1.78-11.06-0.66-15.35c-2.38-4.17-6.78-7.07-12.39-8.16
					c-2.84-0.55-5.91-0.84-9.12-0.87c-5.06-0.04-10.12-0.01-15.18,0.01c-8.27,0.04-16.83,0.08-25.25-0.15
					c-9.78-0.27-18.23-1.02-25.86-2.31c-12.49-2.1-22.05-7.45-27.64-15.47c-5.43-7.77-7.14-18.07-4.94-29.78l0.17-0.93l28.72,0
					c24.31,0,48.61,0.01,72.92-0.02c4.5,0,9.22-0.14,14.04-0.4c12.25-0.66,18.61-5.71,21.96-17.44c2.83-9.91,3.59-20.93,2.34-33.68
					c-2.42-24.61-13.84-42.66-33.95-53.64C505.38,390.47,491.35,386.96,475.87,386.96z M460.77,469.6
					c-11.27,0-22.49-0.01-33.53-0.03l-6.39-0.01c-0.4,0-0.71-0.15-1-0.28c-0.12-0.06-0.26-0.12-0.43-0.19l-0.91-0.36l0.23-0.95
					c1.78-7.51,4.76-14.36,8.85-20.37c10.88-15.95,25.68-23.82,43.82-23.59c10.87,0.18,20.62,4.93,26.75,13.06
					c6.16,8.15,8.06,18.89,5.24,29.47c-0.38,1.4-2.23,3.18-3.77,3.19C486.73,469.58,473.71,469.6,460.77,469.6z M421.21,467.23
					l6.03,0.07c23.73,0.03,48.26,0.06,72.38-0.04c0.4-0.04,1.43-0.96,1.58-1.5c2.64-9.9,0.87-19.93-4.86-27.51
					c-5.71-7.56-14.81-11.99-24.97-12.15c-0.33,0-0.66-0.01-0.98-0.01c-17.16,0-30.55,7.4-40.92,22.61
					C425.73,454.18,422.95,460.41,421.21,467.23z"/>
			</g>
			<g id="XMLID_10_">
				<path d="M1078.53,502.29c0.46-38.02,13.68-70.05,43.09-94.41c21.55-17.85,46.67-23.71,74.06-21.21
					c16.19,1.48,31.17,6.29,44.24,16.29c18.62,14.24,28.65,33.57,31.47,56.65c3.07,25.09,0.41,49.63-10.91,72.43
					c-15.03,30.29-37.57,52.36-71.3,59.63c-26.52,5.71-52.35,3.15-75.32-13.04c-19.74-13.91-30.34-33.64-33.75-57.44
					C1079.22,514.94,1079.04,508.59,1078.53,502.29z M1128.82,499.47c0.75,5.99,1.06,12.08,2.33,17.96
					c3.95,18.27,16.82,30.02,33.29,31.23c16.59,1.22,29.87-5.09,40.12-17.97c15.76-19.79,19.69-42.7,15.61-67.07
					c-2.46-14.69-10.39-26.07-25.29-30.33c-16.57-4.73-31.64-1.03-44.16,11.08C1135.28,459.32,1129.27,478.19,1128.82,499.47z"/>
				<path d="M1164.66,595.54c-19.12,0-36.35-5.34-51.46-15.99c-19.1-13.47-30.62-33.05-34.22-58.21c-0.62-4.32-0.9-8.75-1.17-13.02
					c-0.13-1.98-0.25-3.96-0.41-5.94l0-0.1c0.48-39.71,15.12-71.77,43.5-95.28c20.72-17.15,45.22-24.17,74.89-21.47
					c17.75,1.62,32.42,7.03,44.83,16.52c18.21,13.93,28.95,33.24,31.91,57.41c3.31,27.07-0.4,51.66-11.02,73.08
					c-16.49,33.22-40.74,53.48-72.08,60.23C1180.86,594.62,1172.6,595.54,1164.66,595.54z M1079.67,502.25
					c0.16,1.97,0.28,3.95,0.41,5.92c0.27,4.23,0.55,8.61,1.16,12.84c3.51,24.52,14.7,43.58,33.27,56.67
					c20.83,14.68,45.87,19.01,74.42,12.86c30.63-6.6,54.36-26.45,70.52-59.02c10.43-21.01,14.06-45.16,10.81-71.79
					c-2.88-23.54-13.33-42.34-31.03-55.88c-12.06-9.22-26.34-14.48-43.65-16.06c-29.04-2.65-53,4.2-73.23,20.95
					C1094.52,431.8,1080.16,463.26,1079.67,502.25z M1168.39,549.94c-1.33,0-2.67-0.05-4.03-0.15
					c-17.15-1.26-30.3-13.57-34.32-32.12c-0.89-4.1-1.32-8.33-1.73-12.43c-0.19-1.88-0.38-3.76-0.62-5.63l-0.01-0.08l0-0.08
					c0.49-23.6,7.78-41.88,22.26-55.88c12.68-12.26,28.32-16.2,45.26-11.36c14.34,4.09,23.37,14.89,26.1,31.23
					c4.41,26.36-0.92,49.23-15.85,67.96C1195.65,543.72,1183.19,549.94,1168.39,549.94z M1129.96,499.41
					c0.23,1.86,0.42,3.73,0.61,5.61c0.41,4.03,0.83,8.2,1.69,12.17c3.8,17.53,16.16,29.15,32.26,30.33
					c15.8,1.17,28.96-4.74,39.15-17.54c14.5-18.21,19.68-40.47,15.38-66.17c-2.58-15.41-11.04-25.58-24.48-29.42
					c-16.33-4.66-30.82-1.03-43.05,10.8C1137.51,458.75,1130.46,476.48,1129.96,499.41z"/>
			</g>
			<g id="XMLID_7_">
				<path d="M880.07,502.23c0.4-31.38,9.54-59.39,30.83-82.77c23.54-25.84,52.8-36.12,87.16-32.67c18.16,1.82,34.46,7.91,48.3,20.22
					c13.97,12.43,22.52,28.12,25.55,46.42c5.08,30.67,1.61,60.3-14.54,87.36c-15.43,25.85-36.72,44.7-66.72,50.93
					c-26.15,5.44-51.6,3.16-74.36-12.45c-20.66-14.17-31.55-34.59-34.8-59.32C880.72,514.08,880.53,508.14,880.07,502.23z
					 M970.23,548.74c14.46,0.08,27.21-6.51,36.83-19.22c14.98-19.78,18.83-42.32,14.59-66.21c-3.75-21.15-19.26-32.97-40.22-31.83
					c-15.87,0.86-27.92,8.88-36.83,21.75c-14.32,20.67-17.13,43.6-10.93,67.51C938.39,538.98,951.9,548.64,970.23,548.74z"/>
				<path d="M965.95,595.55c-18.74,0-35.34-5.09-50.3-15.35c-19.97-13.69-31.84-33.92-35.29-60.11c-0.53-4.05-0.79-8.19-1.05-12.19
					c-0.12-1.87-0.24-3.73-0.38-5.59l0-0.1c0.43-33.67,10.61-60.99,31.13-83.52c23.19-25.46,52.83-36.59,88.12-33.04
					c19.65,1.97,35.66,8.68,48.94,20.5c14.1,12.55,22.82,28.39,25.92,47.08c5.47,32.99,0.53,62.65-14.68,88.13
					c-16.93,28.36-39.63,45.68-67.47,51.47C982.17,594.64,973.87,595.55,965.95,595.55z M881.21,502.19
					c0.14,1.86,0.26,3.72,0.38,5.57c0.25,3.96,0.51,8.06,1.03,12.04c3.35,25.52,14.9,45.22,34.32,58.53
					c20.74,14.22,44.78,18.23,73.48,12.27c27.57-5.73,49.15-22.22,65.98-50.4c14.93-25.01,19.77-54.14,14.4-86.59
					c-3.01-18.16-11.48-33.55-25.19-45.75c-12.91-11.49-28.49-18.01-47.65-19.94c-34.54-3.46-63.53,7.41-86.21,32.31
					C891.63,442.32,881.64,469.13,881.21,502.19z M970.48,549.88c-0.09,0-0.17,0-0.26,0c-19.21-0.1-32.93-10.62-37.67-28.86
					c-6.56-25.31-2.83-48.33,11.1-68.44c9.64-13.92,22.33-21.4,37.71-22.24c21.76-1.19,37.61,11.37,41.41,32.77
					c4.54,25.57-0.45,48.14-14.8,67.1C998.22,543.09,985.26,549.88,970.48,549.88z M984.13,432.55c-0.87,0-1.75,0.02-2.64,0.07
					c-14.64,0.8-26.74,7.95-35.96,21.26c-13.53,19.54-17.15,41.94-10.77,66.57c4.52,17.41,17.11,27.05,35.47,27.15l0,0
					c0.08,0,0.16,0,0.24,0c14.04,0,26.37-6.48,35.67-18.77c13.96-18.43,18.79-40.41,14.38-65.33
					C1017.1,444.22,1003.27,432.55,984.13,432.55z"/>
			</g>
			<g id="XMLID_6_">
				<path d="M287.18,367.03c-1.9,0-3.57,0.02-5.24,0c-15.55-0.21-31.12,0-46.64-0.75c-16.32-0.8-21.54-12.29-18.18-26.39
					c2.66-11.17,12.2-18.47,24.37-19.45c3.51-0.28,7.04-0.42,10.57-0.42c44.99-0.03,89.97-0.04,134.96,0.02
					c3.51,0,7.09,0.18,10.5,0.9c15.54,3.27,21.53,16.33,14.06,30.57c-4.96,9.45-13.11,14.32-23.46,14.75
					c-14.36,0.6-28.74,0.55-43.11,0.77c-1.82,0.03-3.64,0-5.87,0c-1.36,8.41-2.72,16.68-4.02,24.95
					c-4.05,25.62-8.07,51.25-12.12,76.87c-4.07,25.75-8.07,51.51-12.29,77.23c-1.55,9.46-2.99,19.03-5.62,28.22
					c-5.36,18.73-23.4,22.44-37.05,18.13c-8.93-2.82-13.51-12.01-11.89-23.62c2.42-17.34,5.1-34.65,7.77-51.96
					c3.55-23.03,7.18-46.05,10.79-69.08c4.06-25.88,8.13-51.76,12.18-77.64C287.02,369.23,287.06,368.34,287.18,367.03z"/>
				<path d="M278.45,595.16c-3.58,0-7.23-0.55-10.76-1.66c-9.4-2.97-14.37-12.73-12.68-24.86c2.31-16.53,4.89-33.3,7.39-49.51
					l0.38-2.47c2.8-18.21,5.66-36.41,8.52-54.62l14.45-92.1c0.09-0.55,0.13-1.1,0.18-1.76l-0.57,0c-1.19,0-2.32,0.01-3.44-0.01
					c-4.71-0.06-9.41-0.09-14.12-0.11c-10.67-0.06-21.71-0.11-32.56-0.64c-7.4-0.36-13.12-2.95-16.53-7.5
					c-3.74-4.98-4.68-12-2.7-20.29c2.74-11.5,12.47-19.29,25.39-20.32c3.48-0.28,7.07-0.42,10.66-0.42
					c44.99-0.03,89.97-0.03,134.96,0.02c4.42,0.01,7.73,0.29,10.74,0.93c7.8,1.64,13.62,5.78,16.38,11.66
					c2.82,5.98,2.27,13.28-1.55,20.56c-5.03,9.59-13.47,14.9-24.42,15.36c-10.14,0.42-20.46,0.52-30.44,0.62
					c-4.23,0.04-8.47,0.08-12.7,0.15c-1.21,0.02-2.42,0.02-3.75,0.01l-1.17,0l-1.08,6.7c-0.94,5.79-1.87,11.54-2.78,17.28
					l-5.84,37.06c-2.09,13.27-4.18,26.54-6.28,39.81l-2.89,18.3c-3.04,19.32-6.19,39.31-9.41,58.94l-0.44,2.7
					c-1.38,8.49-2.81,17.26-5.21,25.64c-2.22,7.74-6.79,13.66-13.23,17.12C288.7,594,283.66,595.16,278.45,595.16z M287.18,365.89
					h1.25l-0.22,2.45c-0.06,0.74-0.11,1.35-0.2,1.95l-14.45,92.1c-2.86,18.2-5.71,36.4-8.52,54.61l-0.38,2.47
					c-2.5,16.21-5.08,32.97-7.39,49.48c-1.56,11.15,2.7,19.72,11.11,22.38c8.08,2.55,16.86,1.94,23.49-1.62
					c5.97-3.21,10.05-8.5,12.12-15.74c2.36-8.25,3.78-16.95,5.15-25.38l0.44-2.71c3.22-19.62,6.36-39.6,9.41-58.92l2.88-18.3
					c2.1-13.27,4.19-26.54,6.28-39.81l5.84-37.06c0.91-5.75,1.84-11.5,2.78-17.29l1.4-8.61l3.12,0c1.32,0.01,2.51,0.01,3.71-0.01
					c4.24-0.06,8.48-0.11,12.72-0.15c9.96-0.1,20.26-0.2,30.37-0.62c10.23-0.42,17.8-5.18,22.5-14.14
					c3.47-6.63,4.01-13.21,1.5-18.53c-2.46-5.21-7.71-8.91-14.79-10.4c-2.85-0.6-6.02-0.87-10.27-0.88
					c-44.98-0.05-89.97-0.05-134.95-0.02c-3.53,0-7.06,0.14-10.48,0.41c-11.9,0.95-20.85,8.07-23.35,18.58
					c-1.81,7.61-1.01,13.97,2.31,18.39c3.04,4.05,8.03,6.26,14.82,6.6c10.8,0.53,21.81,0.58,32.46,0.64
					c4.72,0.02,9.43,0.05,14.14,0.11c1.11,0.02,2.22,0.01,3.41,0.01L287.18,365.89z"/>
			</g>
			<g id="XMLID_5_">
				<path d="M830.31,408.93c2.61-2.45,4.91-4.37,6.93-6.55c9.93-10.75,22.41-15.6,36.7-16.11c4.42-0.16,8.91-0.1,13.29,0.46
					c15.24,1.96,19.6,12.54,17.37,25.93c-2.07,12.41-11.47,20.47-24.45,21.82c-6.36,0.66-12.77,0.98-19.1,1.92
					c-17.4,2.59-28.32,13.09-32.81,29.82c-3.39,12.67-5.67,25.67-7.96,38.61c-3.65,20.61-6.77,41.32-10.38,61.93
					c-1.19,6.79-3.78,13.12-8.66,18.29c-8.29,8.78-18.38,10.61-29.49,7.61c-7.23-1.96-12.16-8.64-11.79-17.24
					c0.44-10.36,1.77-20.72,3.33-30.98c4.43-29.16,9.17-58.27,13.8-87.4c2.6-16.39,5.1-32.79,7.89-49.14
					c3.12-18.3,21.33-27.51,38.04-19.47c4.92,2.37,7.02,6.48,7.28,11.72C830.42,402.9,830.31,405.67,830.31,408.93z"/>
				<path d="M781.17,595.14c-3.09,0-6.33-0.46-9.72-1.38c-7.93-2.15-13-9.54-12.64-18.39c0.47-11.1,1.96-21.95,3.35-31.11
					c3.27-21.52,6.76-43.37,10.14-64.5l3.65-22.9c0.71-4.47,1.41-8.93,2.11-13.4c1.84-11.73,3.74-23.85,5.77-35.75
					c1.54-9.01,6.79-16.44,14.4-20.37c7.7-3.97,16.9-3.95,25.25,0.07c4.96,2.38,7.62,6.65,7.92,12.69c0.1,1.91,0.07,3.83,0.05,5.85
					c0,0.13,0,0.25,0,0.38c0.18-0.16,0.36-0.33,0.54-0.49c1.58-1.43,3.07-2.79,4.39-4.22c9.6-10.39,22.22-15.94,37.49-16.48
					c5.24-0.18,9.52-0.03,13.47,0.47c6.85,0.88,11.93,3.5,15.11,7.78c3.51,4.73,4.6,11.28,3.24,19.46
					c-2.11,12.64-11.86,21.36-25.46,22.76c-2.24,0.23-4.49,0.42-6.74,0.61c-4.05,0.34-8.24,0.7-12.31,1.3
					c-16.66,2.48-27.39,12.23-31.88,28.99c-3.3,12.32-5.58,25.17-7.78,37.6l-0.16,0.91c-1.88,10.66-3.66,21.53-5.38,32.03
					c-1.6,9.8-3.26,19.94-5,29.9c-1.36,7.76-4.29,13.93-8.96,18.87C796.21,592.03,789.21,595.14,781.17,595.14z M810.55,386.65
					c-3.92,0-7.77,0.9-11.26,2.71c-6.98,3.6-11.79,10.43-13.2,18.73c-2.03,11.89-3.93,24-5.77,35.72c-0.7,4.47-1.4,8.94-2.11,13.41
					l-3.66,22.91c-3.38,21.13-6.87,42.97-10.14,64.49c-1.38,9.09-2.86,19.87-3.32,30.86c-0.33,7.89,3.97,14.21,10.95,16.1
					c11.52,3.12,20.79,0.73,28.36-7.29c4.35-4.61,7.09-10.4,8.37-17.7c1.74-9.94,3.4-20.07,5-29.87
					c1.72-10.51,3.49-21.39,5.38-32.06l0.16-0.91c2.21-12.47,4.49-25.37,7.82-37.79c4.68-17.47,16.35-28.07,33.74-30.66
					c4.14-0.62,8.36-0.97,12.45-1.32c2.23-0.19,4.47-0.38,6.69-0.61c12.72-1.32,21.48-9.12,23.44-20.87
					c1.26-7.55,0.31-13.51-2.82-17.73c-2.8-3.77-7.36-6.08-13.57-6.88c-3.83-0.49-8-0.64-13.1-0.46
					c-14.85,0.53-26.6,5.67-35.9,15.74c-1.39,1.51-2.92,2.89-4.54,4.36c-0.79,0.71-1.6,1.45-2.45,2.25l-1.92,1.8v-2.63
					c0-1.05,0.01-2.05,0.02-3.02c0.02-2,0.04-3.88-0.04-5.72c-0.26-5.21-2.42-8.73-6.63-10.75
					C818.63,387.58,814.55,386.65,810.55,386.65z"/>
			</g>
		</g>
		<g id="XMLID_1_">
			<g id="XMLID_3_">
				<path class="st0" d="M1554.52,795.72c-7.6,0-15.17-3.02-20.78-8.99c-121.55-129.57-203.67-298.76-251.15-417.88
					c-51.27-128.61-73.78-225.65-74.71-229.71c-3.52-15.33,6.06-30.61,21.39-34.13c15.34-3.52,30.61,6.06,34.13,21.39l0,0
					c0.22,0.96,22.69,97.6,72.49,222.32c45.61,114.25,124.18,276.22,239.4,399.04c10.76,11.47,10.19,29.5-1.28,40.26
					C1568.51,793.17,1561.51,795.72,1554.52,795.72z"/>
			</g>
			<g id="XMLID_2_">
				<path class="st0" d="M1245.47,680.24c-7.82,0-15.61-3.2-21.23-9.49c-10.49-11.72-9.49-29.73,2.23-40.22
					c137.01-122.62,213.88-330.28,214.64-332.36c5.39-14.78,21.76-22.39,36.52-16.99c14.78,5.39,22.38,21.75,16.99,36.52
					c-3.3,9.05-82.64,223.25-230.17,355.28C1259.02,677.85,1252.23,680.24,1245.47,680.24z"/>
			</g>
		</g>
	</g>
</g>
</svg>
